Coordinates
version=1
nRows=4
nColumns=114
inDegrees=yes

Units are S.I. units (second, meters, Newtons, ...)
If the header above contains a line with 'inDegrees', this indicates whether rotational values are in degrees (yes) or radians (no).

endheader 
time	pelvis_tilt	pelvis_list	pelvis_rotation	pelvis_tx	pelvis_ty	pelvis_tz	hip_flexion_l	hip_adduction_l	hip_rotation_l	hip_flexion_r	hip_adduction_r	hip_rotation_r	knee_angle_l	knee_angle_r	ankle_angle_l	ankle_angle_r	subtalar_angle_l	subtalar_angle_r	mtp_angle_l	mtp_angle_r	lumbar_extension	lumbar_bending	lumbar_rotation	arm_flex_l	arm_add_l	arm_rot_l	arm_flex_r	arm_add_r	arm_rot_r	elbow_flex_l	elbow_flex_r	pro_sup_l	pro_sup_r	addbrev_l/activation	addlong_l/activation	addmagDist_l/activation	addmagIsch_l/activation	addmagMid_l/activation	addmagProx_l/activation	bflh_l/activation	bfsh_l/activation	edl_l/activation	ehl_l/activation	fdl_l/activation	fhl_l/activation	gaslat_l/activation	gasmed_l/activation	glmax1_l/activation	glmax2_l/activation	glmax3_l/activation	glmed1_l/activation	glmed2_l/activation	glmed3_l/activation	glmin1_l/activation	glmin2_l/activation	glmin3_l/activation	grac_l/activation	iliacus_l/activation	perbrev_l/activation	perlong_l/activation	piri_l/activation	psoas_l/activation	recfem_l/activation	sart_l/activation	semimem_l/activation	semiten_l/activation	soleus_l/activation	tfl_l/activation	tibant_l/activation	tibpost_l/activation	vasint_l/activation	vaslat_l/activation	vasmed_l/activation	addbrev_r/activation	addlong_r/activation	addmagDist_r/activation	addmagIsch_r/activation	addmagMid_r/activation	addmagProx_r/activation	bflh_r/activation	bfsh_r/activation	edl_r/activation	ehl_r/activation	fdl_r/activation	fhl_r/activation	gaslat_r/activation	gasmed_r/activation	glmax1_r/activation	glmax2_r/activation	glmax3_r/activation	glmed1_r/activation	glmed2_r/activation	glmed3_r/activation	glmin1_r/activation	glmin2_r/activation	glmin3_r/activation	grac_r/activation	iliacus_r/activation	perbrev_r/activation	perlong_r/activation	piri_r/activation	psoas_r/activation	recfem_r/activation	sart_r/activation	semimem_r/activation	semiten_r/activation	soleus_r/activation	tfl_r/activation	tibant_r/activation	tibpost_r/activation	vasint_r/activation	vaslat_r/activation	vasmed_r/activation	
          4.65000000	          0.77449821	          0.70142885	        -41.13541817	         -4.24918342	          1.06539980	          0.43784273	         30.50541038	          9.75571634	         -7.48187931	         12.84761709	         12.80365318	        -28.68285527	         41.40996136	         44.21943239	        -22.75476418	         13.63313882	        -10.90869930	          7.00468067	         -0.07824746	         -1.14773697	          6.07920898	          1.23015553	          7.90455226	       -421.68606613	        -29.24313177	       -496.66208606	       -200.07597510	       -137.09823059	        108.44269294	         99.57507080	        121.16756895	         83.06983730	         93.66135569	          0.01007536	          0.01007086	          0.01002431	          0.01001734	          0.01004452	          0.01023586	          0.01002226	          0.28907857	          0.10845548	          0.01919909	          0.01705144	          0.01491013	          0.12160050	          0.18018528	          0.01022407	          0.01003263	          0.01001358	          0.11101755	          0.05796447	          0.07033308	          0.02085049	          0.17344910	          0.14092840	          0.01021703	          0.55392057	          0.02399412	          0.02586509	          0.29390368	          0.65357948	          0.17249174	          0.52644385	          0.01002164	          0.01008283	          0.03364230	          0.43750448	          0.09869994	          0.02452065	          0.01001220	          0.01000394	          0.01000890	          0.06935356	          0.10675758	          0.02414090	          0.01209544	          0.06118611	          0.05242124	          0.01002954	          0.01483483	          0.20671877	          0.07498046	          0.02394538	          0.01929886	          0.03180686	          0.01395102	          0.01436258	          0.01441657	          0.01202108	          0.72676674	          0.24997056	          0.01983398	          0.24559305	          0.15266277	          0.07350234	          0.03021312	          0.09383305	          0.13871127	          0.05491059	          0.03615281	          0.07613879	          0.19754297	          0.02524997	          0.01095839	          0.01480966	          0.01618501	          0.50188019	          0.34385912	          0.02981352	          0.02889792	          0.03889710	          0.02996020	
          4.66000000	          0.07018025	          1.29665778	        -39.52454437	         -4.21891550	          1.05792965	          0.43041288	         33.03465762	         10.39453321	         -8.32116735	         15.21823079	         13.70396756	        -29.92801264	         44.23510690	         39.25593996	        -24.74025148	         13.94737105	         -6.72612554	          9.67083220	         -0.00705675	         -1.01414082	          5.67478126	          0.89047045	          8.43488709	       -423.83062221	        -28.59511931	       -503.14064970	       -247.50660030	       -126.23163878	         93.91771704	         96.85741719	        124.09928112	         82.77424286	         93.69213510	          0.01019649	          0.01097178	          0.01002495	          0.01001768	          0.01005141	          0.01043910	          0.01001756	          0.27870886	          0.15007775	          0.02813634	          0.01460087	          0.01256544	          0.10144791	          0.15023379	          0.01003149	          0.01001516	          0.01001102	          0.19038897	          0.04831146	          0.05861416	          0.19479829	          0.14475768	          0.11745922	          0.01065036	          0.69839305	          0.02799710	          0.04602481	          0.24492822	          0.86632455	          0.14376596	          0.50385595	          0.01002019	          0.01006809	          0.02803947	          0.37358065	          0.11669247	          0.02053909	          0.01001145	          0.01000382	          0.01000850	          0.05779785	          0.08896757	          0.02011950	          0.01009546	          0.05099313	          0.04370124	          0.01005201	          0.37995385	          0.28035869	          0.13612991	          0.01997984	          0.01609555	          0.04517804	          0.02000733	          0.01198058	          0.01201779	          0.01003078	          0.72208765	          0.24200288	          0.02257090	          0.23488664	          0.29431395	          0.31395795	          0.02518810	          0.26332426	          0.11562654	          0.06291109	          0.13682326	          0.06347020	          0.16463718	          0.38508225	          0.01248856	          0.01239886	          0.01348826	          0.43218495	          0.28680766	          0.02484793	          0.02408385	          0.03241485	          0.02496821	
          4.67000000	         -0.53218361	          1.95697961	        -38.21016107	         -4.19076159	          1.04836443	          0.42228834	         36.17841445	         10.92496759	         -9.15367915	         17.86405455	         14.35141997	        -30.26776967	         47.73379288	         34.69265778	        -25.76228495	         13.71341102	         -2.14926083	         10.87502476	          0.06367677	         -0.87305164	          5.56405723	          1.04301782	          6.96621096	       -424.93775691	        -28.37777279	       -512.29808035	       -302.30490882	       -122.81655377	         72.95110148	         93.29694562	        127.01517726	         82.49790337	         93.72590534	          0.03609721	          0.04311019	          0.01002105	          0.01001348	          0.01011664	          0.02921108	          0.01001029	          0.23327364	          0.17012175	          0.02434973	          0.01351940	          0.01087645	          0.08463670	          0.12525661	          0.01000652	          0.01000361	          0.01000523	          0.15881634	          0.04026611	          0.04884796	          0.16997188	          0.12072882	          0.09789845	          0.04168950	          0.70295149	          0.02348486	          0.03839723	          0.20410824	          0.84922016	          0.22216197	          0.42024191	          0.01003418	          0.01019633	          0.02337020	          0.31135001	          0.12311972	          0.01779359	          0.01000381	          0.01000130	          0.01000286	          0.04816803	          0.07414258	          0.01676843	          0.01001027	          0.04249904	          0.03643596	          0.01002188	          0.41648597	          0.23419151	          0.11358707	          0.01668485	          0.01342682	          0.03771006	          0.04421528	          0.01001799	          0.01002024	          0.01000500	          0.90731012	          0.36505940	          0.01896873	          0.36682874	          0.44197845	          0.43620301	          0.02100078	          0.21960376	          0.17997942	          0.05292306	          0.12400174	          0.05290756	          0.13720529	          0.38223140	          0.16575996	          0.01206176	          0.01124129	          0.36018135	          0.23902411	          0.02071298	          0.02007232	          0.02701302	          0.02080832	
          4.68000000	         -1.08041670	          2.49337129	        -37.00429403	         -4.16533971	          1.03965332	          0.41474050	         39.51028247	         11.08918209	         -9.70197596	         20.43453597	         14.98068829	        -29.88296170	         51.34374457	         30.20595018	        -26.01249834	         12.88797121	          2.52603594	         10.18457833	          0.12137343	         -0.73980278	          5.60984298	          1.22957475	          4.11306371	       -424.28414604	        -28.08161872	       -519.46267133	       -342.01407915	       -130.24521610	         60.33645465	         89.56246989	        130.22146713	         82.39301806	         93.89749874	          0.03009674	          0.03593731	          0.01003869	          0.01002750	          0.01014852	          0.02444455	          0.01002074	          0.19441615	          0.20640780	          0.02080242	          0.01372423	          0.01232691	          0.07056209	          0.10440023	          0.01001738	          0.01000959	          0.01001266	          0.13256429	          0.03357205	          0.04071314	          0.14168969	          0.10074472	          0.08161518	          0.03476261	          0.58579933	          0.01964087	          0.03202631	          0.17011007	          0.70768731	          0.27594616	          0.35022291	          0.01003162	          0.01014007	          0.01947897	          0.25947860	          0.12806660	          0.01509910	          0.01001239	          0.01000417	          0.01000920	          0.04014378	          0.06178902	          0.01397800	          0.01003926	          0.03542248	          0.03038592	          0.01003913	          0.34708791	          0.23296918	          0.09475821	          0.01402050	          0.01202639	          0.03149220	          0.06010704	          0.01015105	          0.01022319	          0.01001791	          0.90083938	          0.47493708	          0.18141969	          0.30577554	          0.36838866	          0.36355881	          0.01751151	          0.18302263	          0.15000256	          0.11153100	          0.10337502	          0.04409725	          0.11478560	          0.31854176	          0.13817112	          0.01030360	          0.01004853	          0.30016789	          0.19919744	          0.01726604	          0.01673322	          0.02251221	          0.01734371	
